<?xml version="1.0" encoding="UTF-8"?>
<!DOCTYPE svg PUBLIC "-//W3C//DTD SVG 1.1//EN" "http://www.w3.org/Graphics/SVG/1.1/DTD/svg11.dtd">
<svg xmlns="http://www.w3.org/2000/svg" version="1.1" width="67px" height="67px" style="shape-rendering:geometricPrecision; text-rendering:geometricPrecision; image-rendering:optimizeQuality; fill-rule:evenodd; clip-rule:evenodd" xmlns:xlink="http://www.w3.org/1999/xlink">
<g><path style="opacity:0.826" fill="#fefefe" d="M -0.5,59.5 C -0.5,56.5 -0.5,53.5 -0.5,50.5C 3.45173,49.8042 7.45173,49.3042 11.5,49C 1.72311,41.8578 -1.44356,32.3578 2,20.5C 5.21757,11.9535 11.3842,7.12014 20.5,6C 35.4963,5.50008 50.4963,5.33342 65.5,5.5C 65.628,7.65472 65.128,9.65472 64,11.5C 55.9977,23.5003 48.4977,35.8336 41.5,48.5C 46.492,49.332 51.492,49.9986 56.5,50.5C 56.5,53.5 56.5,56.5 56.5,59.5C 47.5,59.5 38.5,59.5 29.5,59.5C 29.3343,55.1539 29.501,50.8206 30,46.5C 36.6222,36.758 43.1222,26.9246 49.5,17C 40.1667,16.3333 30.8333,16.3333 21.5,17C 14.46,21.2554 11.96,27.4221 14,35.5C 16.3062,40.3062 19.8062,43.9729 24.5,46.5C 25.1945,50.7127 25.8612,54.8794 26.5,59C 17.5062,59.4998 8.50617,59.6664 -0.5,59.5 Z"/></g>
</svg>
